P2
8 8
254
200 200 150 150 100 100 50 50 
200 200 150 150 100 100 50 50 
175 175 125 125 75 75 25 25 
175 175 125 125 75 75 25 25 
225 225 175 175 125 125 75 75 
225 225 175 175 125 125 75 75 
250 250 200 200 150 150 100 100 
250 250 200 200 150 150 100 100 
