P2
4 4
254
200 150 100 50
175 125 75 25
225 175 125 75
250 200 150 100
